<svg width="24" height="24" viewBox="0 0 24 24" fill="none" xmlns="http://www.w3.org/2000/svg">
<g clip-path="url(#clip0_1109_102)">
<path d="M9.99999 20.7766C9.1296 20.5792 8.29367 20.2526 7.51999 19.8076" stroke="white" stroke-width="2" stroke-linecap="round" stroke-linejoin="round"/>
<path d="M14 3.22266C15.9882 3.67673 17.7632 4.79235 19.0347 6.38686C20.3061 7.98138 20.9984 9.96031 20.9984 11.9997C20.9984 14.039 20.3061 16.0179 19.0347 17.6125C17.7632 19.207 15.9882 20.3226 14 20.7767" stroke="white" stroke-width="2" stroke-linecap="round" stroke-linejoin="round"/>
<path d="M4.57899 17.093C4.03349 16.3004 3.61919 15.4252 3.35199 14.501" stroke="white" stroke-width="2" stroke-linecap="round" stroke-linejoin="round"/>
<path d="M3.12399 10.4995C3.28399 9.54953 3.59199 8.64953 4.02399 7.82453L4.19299 7.51953" stroke="white" stroke-width="2" stroke-linecap="round" stroke-linejoin="round"/>
<path d="M6.90701 4.57866C7.84267 3.93456 8.89233 3.47437 10 3.22266" stroke="white" stroke-width="2" stroke-linecap="round" stroke-linejoin="round"/>
<path d="M12 8V12L15 15" stroke="white" stroke-width="2" stroke-linecap="round" stroke-linejoin="round"/>
</g>
<defs>
<clipPath id="clip0_1109_102">
<rect width="24" height="24" fill="white"/>
</clipPath>
</defs>
</svg>
